<svg width="1614" height="414" viewBox="0 0 1614 414" fill="none" xmlns="http://www.w3.org/2000/svg">
<path d="M478.89 28.95L451.28 63.82L481.75 101H469.76L441.6 65.69V101H432.25V28.95H441.6V63.71L468.44 28.95H478.89ZM560.773 28.95L582.883 101H572.763L568.033 84.28H541.523L536.793 101H527.223L549.223 28.95H560.773ZM554.833 37.53L543.833 75.92H565.723L554.833 37.53ZM645.938 28.95V101H636.588V28.95H645.938ZM724.517 27.63C728.477 27.63 733.647 28.2167 740.027 29.39L739.807 37.64C733.793 36.4667 728.697 35.88 724.517 35.88C720.263 35.88 717.183 36.7233 715.277 38.41C713.443 40.0967 712.527 42.6633 712.527 46.11V48.97C712.527 50.8033 712.747 52.27 713.187 53.37C713.7 54.3967 714.58 55.3133 715.827 56.12C717.073 56.8533 718.943 57.6233 721.437 58.43L731.667 61.84C736.58 63.5267 740.027 65.7633 742.007 68.55C744.06 71.3367 745.087 75.4067 745.087 80.76V82.85C745.087 89.3767 743.18 94.2533 739.367 97.48C735.627 100.707 729.467 102.32 720.887 102.32C716.707 102.32 711.353 101.587 704.827 100.12L705.047 91.65C711.133 93.1167 716.34 93.85 720.667 93.85C726.167 93.85 730.053 93.0433 732.327 91.43C734.6 89.7433 735.737 87.14 735.737 83.62V79.99C735.737 77.4233 735.15 75.48 733.977 74.16C732.877 72.7667 730.897 71.5933 728.037 70.64L716.707 66.9C711.647 65.2133 708.127 63.05 706.147 60.41C704.167 57.6967 703.177 53.6267 703.177 48.2V46.99C703.177 40.61 704.863 35.8067 708.237 32.58C711.683 29.28 717.11 27.63 724.517 27.63ZM839.13 28.95V37.42H810.53V60.19H836.93V68.55H810.53V92.53H839.13V101H801.18V28.95H839.13ZM917.708 27.63C926.362 27.63 932.742 29.3167 936.848 32.69C940.955 36.0633 943.008 40.7933 943.008 46.88V49.63C943.008 53.8833 941.835 57.66 939.488 60.96C937.142 64.1867 933.768 66.46 929.368 67.78L948.068 101H937.618L920.128 69.76C919.542 69.8333 918.368 69.87 916.608 69.87C913.675 69.87 910.778 69.76 907.918 69.54V101H898.568V28.07C906.782 27.7767 913.162 27.63 917.708 27.63ZM917.488 35.55C915.068 35.55 911.878 35.6233 907.918 35.77V61.73C911.878 62.0967 915.178 62.28 917.818 62.28C928.378 62.28 933.658 57.99 933.658 49.41V47.21C933.658 43.25 932.375 40.3167 929.808 38.41C927.242 36.5033 923.135 35.55 917.488 35.55Z" fill="#FBC400"/>
<path d="M470.2 149.95V158.42H441.6V181.19H463.16V189.55H441.6V222H432.25V149.95H470.2ZM545.986 148.63C554.639 148.63 561.019 150.317 565.126 153.69C569.232 157.063 571.286 161.793 571.286 167.88V170.63C571.286 174.883 570.112 178.66 567.766 181.96C565.419 185.187 562.046 187.46 557.646 188.78L576.346 222H565.896L548.406 190.76C547.819 190.833 546.646 190.87 544.886 190.87C541.952 190.87 539.056 190.76 536.196 190.54V222H526.846V149.07C535.059 148.777 541.439 148.63 545.986 148.63ZM545.766 156.55C543.346 156.55 540.156 156.623 536.196 156.77V182.73C540.156 183.097 543.456 183.28 546.096 183.28C556.656 183.28 561.936 178.99 561.936 170.41V168.21C561.936 164.25 560.652 161.317 558.086 159.41C555.519 157.503 551.412 156.55 545.766 156.55ZM655.906 149.95L678.016 222H667.896L663.166 205.28H636.656L631.926 222H622.356L644.356 149.95H655.906ZM649.966 158.53L638.966 196.92H660.856L649.966 158.53ZM764.721 222L740.961 161.17V222H731.721V149.95H746.681L770.001 210.78V149.95H779.241V222H764.721ZM879.344 149.95V157.32L846.784 213.53H879.344V222H835.894V214.63L868.454 158.42H836.554V149.95H879.344Z" fill="#929292"/>
<path d="M470.2 270.95V279.42H441.6V302.19H468V310.55H441.6V334.53H470.2V343H432.25V270.95H470.2ZM562.639 343L538.879 282.17V343H529.639V270.95H544.599L567.919 331.78V270.95H577.159V343H562.639ZM660.542 269.63C663.255 269.63 666.372 269.887 669.892 270.4C673.412 270.84 676.639 271.353 679.572 271.94L679.352 280.19C671.065 278.577 664.795 277.77 660.542 277.77C655.482 277.77 651.852 278.797 649.652 280.85C647.525 282.83 646.462 286.167 646.462 290.86V322.76C646.462 327.453 647.525 330.863 649.652 332.99C651.852 335.043 655.482 336.07 660.542 336.07C663.842 336.07 668.132 335.557 673.412 334.53V310.22H659.662V301.42H682.762V340.25C673.962 342.963 666.555 344.32 660.542 344.32C652.109 344.32 646.095 342.523 642.502 338.93C638.909 335.337 637.112 329.727 637.112 322.1V291.85C637.112 284.077 638.945 278.43 642.612 274.91C646.279 271.39 652.255 269.63 660.542 269.63ZM752.028 270.95V343H742.678V270.95H752.028ZM845.566 343L821.806 282.17V343H812.566V270.95H827.526L850.846 331.78V270.95H860.086V343H845.566ZM958.54 270.95V279.42H929.94V302.19H956.34V310.55H929.94V334.53H958.54V343H920.59V270.95H958.54ZM1055.93 270.95V279.42H1027.33V302.19H1053.73V310.55H1027.33V334.53H1055.93V343H1017.98V270.95H1055.93ZM1134.51 269.63C1143.16 269.63 1149.54 271.317 1153.65 274.69C1157.75 278.063 1159.81 282.793 1159.81 288.88V291.63C1159.81 295.883 1158.63 299.66 1156.29 302.96C1153.94 306.187 1150.57 308.46 1146.17 309.78L1164.87 343H1154.42L1136.93 311.76C1136.34 311.833 1135.17 311.87 1133.41 311.87C1130.47 311.87 1127.58 311.76 1124.72 311.54V343H1115.37V270.07C1123.58 269.777 1129.96 269.63 1134.51 269.63ZM1134.29 277.55C1131.87 277.55 1128.68 277.623 1124.72 277.77V303.73C1128.68 304.097 1131.98 304.28 1134.62 304.28C1145.18 304.28 1150.46 299.99 1150.46 291.41V289.21C1150.46 285.25 1149.17 282.317 1146.61 280.41C1144.04 278.503 1139.93 277.55 1134.29 277.55ZM1228.12 270.95V343H1218.77V270.95H1228.12ZM1321.66 343L1297.9 282.17V343H1288.66V270.95H1303.62L1326.94 331.78V270.95H1336.18V343H1321.66ZM1419.56 269.63C1422.28 269.63 1425.39 269.887 1428.91 270.4C1432.43 270.84 1435.66 271.353 1438.59 271.94L1438.37 280.19C1430.09 278.577 1423.82 277.77 1419.56 277.77C1414.5 277.77 1410.87 278.797 1408.67 280.85C1406.55 282.83 1405.48 286.167 1405.48 290.86V322.76C1405.48 327.453 1406.55 330.863 1408.67 332.99C1410.87 335.043 1414.5 336.07 1419.56 336.07C1422.86 336.07 1427.15 335.557 1432.43 334.53V310.22H1418.68V301.42H1441.78V340.25C1432.98 342.963 1425.58 344.32 1419.56 344.32C1411.13 344.32 1405.12 342.523 1401.52 338.93C1397.93 335.337 1396.13 329.727 1396.13 322.1V291.85C1396.13 284.077 1397.97 278.43 1401.63 274.91C1405.3 271.39 1411.28 269.63 1419.56 269.63Z" fill="white"/>
<path d="M359.341 179.172C359.341 277.791 278.9 357.738 179.671 357.738C80.4413 357.738 0 277.791 0 179.172C0 80.553 80.4413 0.606323 179.671 0.606323C278.9 0.606323 359.341 80.553 359.341 179.172ZM17.9671 179.172C17.9671 267.929 90.3642 339.881 179.671 339.881C268.977 339.881 341.374 267.929 341.374 179.172C341.374 90.4149 268.977 18.4629 179.671 18.4629C90.3642 18.4629 17.9671 90.4149 17.9671 179.172Z" fill="#929292"/>
<rect x="74.3465" y="66.2856" width="20.6518" height="225.773" fill="#FBC400"/>
<rect width="20.5893" height="140.007" transform="matrix(0.714101 -0.700043 0.714101 0.700043 73.5602 183.919)" fill="#FBC400"/>
<path fill-rule="evenodd" clip-rule="evenodd" d="M167.512 58.0806H188.164V292.166L183.711 292.227L167.512 276.346V58.0806Z" fill="#929292"/>
<path fill-rule="evenodd" clip-rule="evenodd" d="M18.4581 191.689H95.0953V171.164H18.1678C17.8244 178.003 17.9213 184.859 18.4581 191.689Z" fill="#FBC400"/>
<path fill-rule="evenodd" clip-rule="evenodd" d="M340.883 191.689C341.42 184.86 341.517 178.004 341.173 171.164H177.557V191.689H340.883Z" fill="#929292"/>
<path fill-rule="evenodd" clip-rule="evenodd" d="M220.942 5.46472L167.511 57.8438L182.214 72.2572L243.385 12.2897C236.118 9.54759 228.625 7.26091 220.942 5.46472Z" fill="#929292"/>
<path fill-rule="evenodd" clip-rule="evenodd" d="M243.061 12.1671L78.9404 173.056L93.6432 187.47L263.009 21.0733C256.58 17.7187 249.92 14.7401 243.061 12.1671Z" fill="#FBC400"/>
</svg>
