<svg width="19" height="17" viewBox="0 0 19 17" fill="none" xmlns="http://www.w3.org/2000/svg">
<path d="M17.0302 12.7179L17.0302 12.7179L17.99 5.99929L17.99 5.99929L17.0302 12.7179ZM17.0302 12.7179C17.0131 12.8377 17.0049 12.9613 16.9998 13.0383C16.999 13.0509 16.9982 13.0622 16.9975 13.0721C16.9611 13.5902 16.528 14 16 14H7.00002C6.47206 14 6.03893 13.5902 6.00254 13.0721C6.00185 13.0622 6.0011 13.0509 6.00026 13.0383C5.99517 12.9613 5.98699 12.8377 5.96987 12.7179L5.01007 5.99929C5.00582 5.96952 5.00392 5.95019 5.00312 5.93744M17.0302 12.7179L5.00312 5.93744M5.00312 5.93744C5.00273 5.93106 5.00268 5.92735 5.00268 5.92596M5.00312 5.93744L5.00268 5.92596M5.00268 5.92596C5.04 5.40875 5.47272 5 6.00002 5H17C17.5273 5 17.96 5.40875 17.9974 5.92596L5.00268 5.92596Z" fill="var(--containerLightColor)" stroke="var(--iconTextColor)" stroke-width="2"/>
<circle cx="7.00002" cy="16" r="1" fill="var(--iconTextColor)"/>
<circle cx="16" cy="16" r="1" fill="var(--iconTextColor)"/>
<rect x="5.26412" y="0.969543" width="5.82323" height="1.99887" rx="0.999435" transform="rotate(81.7981 5.26412 0.969543)" fill="var(--iconTextColor)"/>
<rect x="5.41579" y="2.99927" width="5.41398" height="1.99887" rx="0.999435" transform="rotate(179.95 5.41579 2.99927)" fill="var(--iconTextColor)"/>
</svg>
